<?xml version="1.0" encoding="utf-8"?>
<!-- Generator: Adobe Illustrator 23.0.2, SVG Export Plug-In . SVG Version: 6.00 Build 0)  -->
<svg version="1.1" id="Layer_1" xmlns="http://www.w3.org/2000/svg" xmlns:xlink="http://www.w3.org/1999/xlink" x="0px" y="0px"
	 viewBox="0 0 250 250" style="enable-background:new 0 0 250 250;" xml:space="preserve">
<style type="text/css">
	.st0{fill:none;stroke:#000000;stroke-miterlimit:10;}
</style>
<g>
	<path class="st0" d="M174.73,49.72c-17.7,0-31.36,3.89-47.82,20.35c-10.17,10.17-11.65,15.3-16.28,14.24l-12.21-4.07
		c-41.68-9.49-89.54-4.07-97.68,54.94c-7.04,51.02,37.14,64.66,91.57,63.08c19.58-0.57,32.56,0,63.53-1.14
		c8.13-0.67,10.68,1.21,17.87,1.14c41.02-0.35,75.29-17.99,75.29-59.01S215.75,49.72,174.73,49.72z"/>
	<path class="st0" d="M174.73,51.75c40.02,0,72.24,47.87,72.24,87.5c0,18.66-7.2,33.16-21.4,43.09
		c-12.73,8.9-30.67,13.71-51.88,13.89l-0.33,0c-2.81,0-4.83-0.31-6.97-0.63c-2.11-0.32-4.3-0.66-7.19-0.66
		c-1.13,0-2.29,0.05-3.43,0.15c-18.35,0.68-30.49,0.75-41.21,0.82c-7.37,0.05-14.33,0.09-22.31,0.32c-2.73,0.08-5.43,0.12-8.04,0.12
		c-35.39,0-59.66-7.26-72.13-21.56c-8.45-9.7-11.59-22.93-9.33-39.32c2.79-20.22,10.55-35.28,23.07-44.76
		c10.65-8.06,24.74-12.15,41.87-12.15c9.36,0,19.51,1.23,30.17,3.65l12.11,4.04l0.09,0.03l0.1,0.02c0.55,0.13,1.07,0.19,1.59,0.19
		c3.32,0,5.39-2.43,8.81-6.45c1.93-2.27,4.34-5.09,7.77-8.53C144.79,55.06,158.29,51.75,174.73,51.75 M174.73,49.72
		c-17.7,0-31.36,3.89-47.82,20.35c-9.3,9.3-11.33,14.38-15.14,14.38c-0.36,0-0.74-0.05-1.14-0.14l-12.21-4.07
		c-10.09-2.3-20.55-3.72-30.72-3.72c-31.82,0-60.79,13.94-66.96,58.67c-6.69,48.47,32.84,63.2,83.47,63.2c2.67,0,5.37-0.04,8.1-0.12
		c19.58-0.57,32.56,0,63.53-1.14c1.24-0.1,2.34-0.15,3.36-0.15c5.55,0,8.31,1.29,14.16,1.29c0.11,0,0.23,0,0.35,0
		c41.02-0.35,75.29-17.99,75.29-59.01S215.75,49.72,174.73,49.72L174.73,49.72z"/>
</g>
<g>
</g>
<g>
</g>
<g>
</g>
<g>
</g>
<g>
</g>
<g>
</g>
<g>
</g>
<g>
</g>
<g>
</g>
<g>
</g>
<g>
</g>
<g>
</g>
<g>
</g>
<g>
</g>
<g>
</g>
</svg>
