<?xml version="1.0" encoding="utf-8"?>
<!-- Generator: Adobe Illustrator 23.0.2, SVG Export Plug-In . SVG Version: 6.00 Build 0)  -->
<svg version="1.1" id="Layer_1" xmlns="http://www.w3.org/2000/svg" xmlns:xlink="http://www.w3.org/1999/xlink" x="0px" y="0px"
	 viewBox="0 0 250 250" style="enable-background:new 0 0 250 250;" xml:space="preserve">
<style type="text/css">
	.st0{fill:none;stroke:#000000;stroke-miterlimit:10;}
</style>
<g>
	<path class="st0" d="M108.17,62.23c1.87,0.44,3.8,0.9,9.33-22.43c5.53-23.33,3.6-23.79,1.73-24.23c-1.87-0.44-3.8-0.9-9.33,22.43
		C104.36,61.33,106.3,61.79,108.17,62.23z"/>
	<path class="st0" d="M144.11,83.05c1.35,0.32,4.3-0.81,12.69-5.99c12.25-7.56,11.6-8.62,10.61-10.23c-1.26-2.04-3.68-0.81-6.24,0.5
		c-2.12,1.08-4.84,2.64-7.66,4.38c-12.26,7.56-11.6,8.62-10.61,10.23C143.21,82.45,143.49,82.91,144.11,83.05z"/>
	<path class="st0" d="M48.94,100.23c0.43-1.82,0.92-3.89-23.49-9.68c-24.41-5.79-24.9-3.72-25.33-1.9s-0.92,3.89,23.49,9.68
		C48.02,104.12,48.51,102.05,48.94,100.23z"/>
	<path class="st0" d="M64.36,53.14c1.74,2.83,3.48,5.44,4.88,7.36c1.22,1.66,2.38,3.25,3.7,3.56c0.52,0.12,1.07,0.05,1.65-0.31
		c2.04-1.26,0.81-3.68-0.5-6.24c-1.08-2.11-2.64-4.84-4.38-7.66s-3.48-5.44-4.88-7.36c-1.7-2.32-3.31-4.51-5.35-3.25
		c-2.04,1.26-0.81,3.68,0.5,6.24C61.06,47.59,62.61,50.31,64.36,53.14z"/>
	<path class="st0" d="M181.17,80.77c-15.36,0-27.44,3.16-41.45,16.1c-3.93-14.86-15.7-27.15-31.67-30.94
		c-23.08-5.47-46.3,8.86-51.77,31.93c-0.97,4.09-1.31,8.19-1.09,12.19c-0.59,0.22-1.18,0.46-1.76,0.7
		c-0.17,0.07-0.35,0.15-0.52,0.23c-0.54,0.23-1.08,0.47-1.61,0.72c-0.2,0.1-0.41,0.19-0.61,0.29c-0.65,0.31-1.28,0.63-1.92,0.97
		c-0.18,0.09-0.35,0.19-0.53,0.29c-0.51,0.28-1.01,0.57-1.51,0.86c-0.19,0.11-0.38,0.22-0.57,0.34c-0.61,0.37-1.22,0.76-1.82,1.16
		c-0.17,0.11-0.34,0.23-0.51,0.35c-0.48,0.33-0.96,0.68-1.44,1.03c-0.17,0.13-0.34,0.25-0.51,0.38c-0.58,0.44-1.15,0.9-1.71,1.37
		c-0.16,0.14-0.32,0.28-0.48,0.42c-0.46,0.39-0.91,0.8-1.35,1.21c-0.15,0.14-0.3,0.27-0.44,0.41c-0.54,0.51-1.07,1.04-1.6,1.59
		c-0.15,0.16-0.3,0.32-0.44,0.47c-0.43,0.46-0.86,0.93-1.28,1.42c-0.12,0.14-0.25,0.28-0.37,0.43c-0.5,0.59-0.99,1.2-1.47,1.82
		c-0.13,0.17-0.27,0.35-0.4,0.53c-0.4,0.54-0.8,1.09-1.19,1.65c-0.1,0.14-0.2,0.28-0.3,0.43c-0.46,0.67-0.9,1.37-1.33,2.07
		c-0.12,0.19-0.24,0.39-0.35,0.59c-0.37,0.62-0.74,1.26-1.09,1.91c-0.07,0.14-0.15,0.27-0.23,0.41c-0.41,0.76-0.8,1.54-1.18,2.34
		c-0.1,0.21-0.2,0.43-0.3,0.64c-0.34,0.72-0.66,1.46-0.98,2.21c-0.05,0.12-0.11,0.24-0.16,0.36c-0.35,0.85-0.69,1.73-1.01,2.62
		c-0.08,0.23-0.17,0.46-0.25,0.7c-0.3,0.83-0.58,1.68-0.85,2.55c-0.03,0.1-0.06,0.19-0.09,0.29c-0.29,0.95-0.57,1.92-0.83,2.91
		c-0.07,0.25-0.13,0.5-0.2,0.76c-0.25,0.96-0.48,1.93-0.7,2.93c-0.01,0.06-0.03,0.11-0.04,0.17c-0.23,1.05-0.44,2.12-0.63,3.21
		c-0.05,0.27-0.1,0.54-0.14,0.82c-0.19,1.1-0.37,2.22-0.53,3.37c0,0,0,0.01,0,0.01c-0.1,0.72-0.19,1.43-0.26,2.14
		c-0.03,0.23-0.04,0.45-0.07,0.68c-0.05,0.47-0.1,0.95-0.13,1.41c-0.02,0.27-0.04,0.54-0.06,0.81c-0.03,0.41-0.06,0.82-0.08,1.23
		c-0.01,0.29-0.02,0.57-0.03,0.85c-0.01,0.38-0.03,0.77-0.04,1.15c-0.01,0.29-0.01,0.57-0.01,0.86c0,0.36-0.01,0.73,0,1.09
		c0,0.29,0.01,0.57,0.02,0.86c0.01,0.35,0.02,0.7,0.03,1.04c0.01,0.29,0.03,0.57,0.05,0.85c0.02,0.34,0.04,0.67,0.07,1
		c0.02,0.28,0.05,0.56,0.08,0.84c0.03,0.33,0.06,0.65,0.1,0.97c0.03,0.28,0.07,0.55,0.1,0.83c0.04,0.32,0.09,0.63,0.13,0.94
		c0.04,0.27,0.08,0.54,0.13,0.81c0.05,0.31,0.11,0.61,0.17,0.92c0.05,0.26,0.1,0.53,0.16,0.79c0.06,0.3,0.13,0.6,0.2,0.89
		c0.06,0.26,0.12,0.51,0.18,0.77c0.07,0.29,0.15,0.58,0.23,0.87c0.07,0.25,0.14,0.5,0.21,0.74c0.08,0.29,0.17,0.57,0.26,0.85
		c0.08,0.24,0.15,0.48,0.23,0.72c0.09,0.28,0.19,0.56,0.29,0.83c0.08,0.23,0.17,0.47,0.26,0.7c0.11,0.28,0.22,0.55,0.33,0.82
		c0.09,0.22,0.18,0.45,0.27,0.67c0.12,0.27,0.24,0.54,0.37,0.81c0.1,0.21,0.19,0.43,0.29,0.63c0.13,0.28,0.27,0.55,0.41,0.82
		c0.1,0.2,0.2,0.39,0.3,0.59c0.16,0.29,0.32,0.58,0.48,0.87c0.09,0.17,0.18,0.33,0.28,0.5c0.24,0.41,0.49,0.81,0.74,1.21
		c0.07,0.1,0.13,0.2,0.2,0.3c0.24,0.37,0.48,0.73,0.73,1.08c0.11,0.16,0.23,0.32,0.35,0.48c0.19,0.26,0.37,0.51,0.56,0.77
		c0.13,0.18,0.27,0.35,0.41,0.52c0.18,0.23,0.36,0.46,0.55,0.69c0.15,0.18,0.3,0.35,0.45,0.53c0.18,0.21,0.37,0.43,0.56,0.64
		c0.16,0.18,0.32,0.35,0.48,0.52c0.19,0.2,0.38,0.41,0.57,0.61c0.17,0.17,0.34,0.34,0.51,0.52c0.19,0.19,0.39,0.39,0.59,0.58
		c0.18,0.17,0.36,0.34,0.54,0.5c0.2,0.19,0.4,0.37,0.61,0.55c0.18,0.16,0.37,0.32,0.56,0.49c0.21,0.18,0.42,0.36,0.63,0.53
		c0.19,0.16,0.39,0.32,0.59,0.47c0.21,0.17,0.43,0.34,0.65,0.51c0.2,0.15,0.41,0.31,0.61,0.46c0.22,0.16,0.45,0.33,0.67,0.49
		c0.21,0.15,0.42,0.3,0.63,0.44c0.23,0.16,0.46,0.32,0.7,0.47c0.21,0.14,0.43,0.28,0.65,0.42c0.24,0.15,0.48,0.3,0.72,0.45
		c0.22,0.14,0.44,0.27,0.66,0.41c0.25,0.15,0.5,0.29,0.75,0.44c0.22,0.13,0.45,0.26,0.67,0.39c0.26,0.14,0.52,0.28,0.78,0.42
		c0.23,0.12,0.46,0.25,0.69,0.37c0.27,0.14,0.53,0.27,0.8,0.41c0.23,0.12,0.46,0.23,0.7,0.35c0.28,0.14,0.56,0.27,0.84,0.4
		c0.23,0.11,0.46,0.22,0.7,0.33c0.29,0.13,0.59,0.26,0.89,0.39c0.23,0.1,0.46,0.2,0.69,0.3c0.33,0.14,0.66,0.27,0.99,0.4
		c0.21,0.08,0.41,0.17,0.62,0.25c0.51,0.2,1.04,0.4,1.56,0.59c0.13,0.05,0.26,0.09,0.39,0.14c0.45,0.16,0.91,0.33,1.37,0.48
		c0.23,0.08,0.46,0.15,0.7,0.23c0.34,0.11,0.68,0.23,1.02,0.34c0.25,0.08,0.51,0.16,0.76,0.23c0.33,0.1,0.66,0.2,0.99,0.3
		c0.27,0.08,0.53,0.15,0.8,0.23c0.33,0.09,0.65,0.19,0.98,0.28c0.28,0.08,0.56,0.15,0.84,0.22c0.33,0.09,0.65,0.17,0.98,0.26
		c0.28,0.07,0.57,0.14,0.86,0.21c0.33,0.08,0.66,0.16,0.99,0.24c0.29,0.07,0.59,0.13,0.88,0.2c0.33,0.07,0.66,0.15,1,0.22
		c0.3,0.06,0.6,0.13,0.9,0.19c0.34,0.07,0.67,0.14,1.01,0.2c0.3,0.06,0.61,0.12,0.91,0.17c0.34,0.06,0.68,0.13,1.03,0.19
		c0.31,0.05,0.61,0.11,0.92,0.16c0.35,0.06,0.7,0.12,1.05,0.17c0.31,0.05,0.62,0.1,0.93,0.15c0.35,0.05,0.71,0.11,1.07,0.16
		c0.31,0.05,0.62,0.09,0.93,0.13c0.36,0.05,0.72,0.1,1.09,0.15c0.32,0.04,0.63,0.08,0.95,0.12c0.36,0.05,0.73,0.09,1.1,0.13
		c0.32,0.04,0.63,0.08,0.95,0.11c0.38,0.04,0.75,0.08,1.13,0.12c0.31,0.03,0.63,0.07,0.94,0.1c0.39,0.04,0.78,0.07,1.17,0.11
		c0.31,0.03,0.61,0.06,0.92,0.08c0.41,0.03,0.82,0.07,1.23,0.1c0.3,0.02,0.59,0.05,0.89,0.07c0.43,0.03,0.86,0.06,1.28,0.09
		c0.29,0.02,0.57,0.04,0.86,0.06c0.48,0.03,0.97,0.06,1.45,0.08c0.24,0.01,0.47,0.03,0.7,0.04c0.72,0.04,1.45,0.07,2.18,0.1
		c0.08,0,0.17,0.01,0.25,0.01c0.65,0.02,1.3,0.05,1.96,0.07c0.24,0.01,0.49,0.01,0.73,0.02c0.49,0.01,0.99,0.02,1.49,0.03
		c0.29,0.01,0.59,0.01,0.88,0.01c0.45,0.01,0.9,0.01,1.35,0.02c0.32,0,0.64,0,0.96,0c0.35,0,0.69,0,1.04,0c0.06,0,0.12,0,0.18,0
		c1.08,0,2.16-0.01,3.25-0.02c0.24,0,0.48-0.01,0.72-0.01c1.11-0.02,2.23-0.04,3.36-0.07c18.14-0.53,30.17,0,58.87-1.06
		c0.53-0.04,1.03-0.07,1.51-0.1c0.15-0.01,0.3-0.01,0.45-0.01c0.32-0.01,0.64-0.02,0.94-0.02c0.21,0,0.42,0,0.62,0
		c0.12,0,0.25,0,0.36,0.01c0.26,0.01,0.51,0.02,0.75,0.03c0.08,0,0.16,0.01,0.24,0.01c0.32,0.02,0.63,0.04,0.94,0.07
		c0.07,0.01,0.13,0.01,0.2,0.02c0.24,0.02,0.47,0.04,0.7,0.07c0.1,0.01,0.2,0.02,0.3,0.04c0.19,0.02,0.38,0.05,0.57,0.07
		c0.1,0.01,0.2,0.03,0.3,0.04c0.19,0.03,0.39,0.05,0.58,0.08c0.09,0.01,0.18,0.03,0.27,0.04c0.24,0.04,0.48,0.07,0.72,0.11
		c0.29,0.04,0.58,0.09,0.88,0.13c0.07,0.01,0.14,0.02,0.21,0.03c0.21,0.03,0.42,0.06,0.63,0.09c0.1,0.01,0.2,0.03,0.3,0.04
		c0.19,0.02,0.38,0.05,0.57,0.07c0.11,0.01,0.22,0.03,0.33,0.04c0.2,0.02,0.4,0.04,0.6,0.06c0.11,0.01,0.22,0.02,0.33,0.03
		c0.24,0.02,0.49,0.04,0.74,0.05c0.08,0,0.15,0.01,0.23,0.02c0.33,0.02,0.67,0.03,1.03,0.04c0.09,0,0.18,0,0.27,0
		c0.22,0,0.43,0.01,0.66,0.01c0.11,0,0.21,0,0.32,0c38.01-0.33,69.77-16.67,69.77-54.69C250,125.73,219.18,80.77,181.17,80.77z
		 M60.49,98.86c4.92-20.76,25.81-33.64,46.57-28.72c15.23,3.61,26.21,15.82,29.04,30.26c-0.29,0.29-0.58,0.59-0.85,0.87
		c-0.18,0.18-0.34,0.36-0.51,0.54c-0.32,0.34-0.65,0.68-0.95,1.01c-0.19,0.21-0.36,0.4-0.54,0.6c-0.26,0.29-0.52,0.57-0.77,0.85
		c-0.18,0.2-0.35,0.4-0.53,0.6c-0.23,0.26-0.45,0.51-0.66,0.75c-0.17,0.2-0.34,0.39-0.5,0.58c-0.21,0.24-0.41,0.48-0.61,0.71
		c-0.21,0.25-0.42,0.49-0.62,0.72c-0.21,0.25-0.41,0.47-0.6,0.7c-0.17,0.2-0.33,0.38-0.49,0.57c-0.13,0.15-0.26,0.3-0.39,0.44
		c-0.15,0.17-0.3,0.34-0.44,0.5c-0.11,0.12-0.22,0.25-0.33,0.37c-0.15,0.16-0.29,0.31-0.43,0.45c-0.09,0.1-0.19,0.2-0.28,0.29
		c-0.16,0.16-0.32,0.31-0.48,0.45c-0.06,0.06-0.13,0.12-0.19,0.18c-0.22,0.19-0.43,0.36-0.64,0.51c-0.05,0.03-0.09,0.06-0.14,0.09
		c-0.16,0.11-0.33,0.22-0.49,0.3c-0.08,0.04-0.15,0.07-0.23,0.1c-0.13,0.06-0.27,0.12-0.41,0.17c-0.09,0.03-0.18,0.05-0.26,0.07
		c-0.13,0.03-0.26,0.07-0.39,0.08c-0.09,0.01-0.19,0.02-0.29,0.02c-0.14,0.01-0.29,0.02-0.44,0.01c-0.06,0-0.12-0.01-0.18-0.01
		c-0.22-0.02-0.45-0.05-0.69-0.1l-11.31-3.77c-1.14-0.26-2.28-0.51-3.43-0.74c-0.04-0.01-0.08-0.02-0.12-0.03
		c-1.12-0.23-2.24-0.44-3.36-0.64c-0.07-0.01-0.15-0.03-0.22-0.04c-1.1-0.2-2.21-0.38-3.31-0.55c-0.09-0.01-0.18-0.03-0.28-0.04
		c-1.09-0.17-2.18-0.32-3.27-0.45c-0.11-0.01-0.22-0.03-0.33-0.04c-1.08-0.13-2.16-0.25-3.24-0.36c-0.12-0.01-0.24-0.02-0.36-0.04
		c-1.07-0.1-2.13-0.19-3.2-0.26c-0.14-0.01-0.27-0.02-0.41-0.03c-1.05-0.07-2.1-0.12-3.15-0.16c-0.15-0.01-0.29-0.01-0.44-0.02
		c-1.04-0.03-2.07-0.05-3.1-0.05c-0.08,0-0.16,0-0.24,0c-0.1,0-0.2,0-0.3,0c-0.82,0-1.63,0.01-2.44,0.03c-0.03,0-0.06,0-0.1,0
		c-0.78,0.02-1.55,0.06-2.32,0.1c-0.21,0.01-0.42,0.02-0.64,0.04c-0.79,0.05-1.58,0.1-2.36,0.17c-0.09,0.01-0.17,0.02-0.26,0.03
		c-0.71,0.06-1.42,0.14-2.12,0.22c-0.22,0.03-0.44,0.05-0.66,0.08c-0.76,0.1-1.52,0.2-2.28,0.32c-0.13,0.02-0.25,0.04-0.38,0.06
		c-0.66,0.11-1.31,0.22-1.96,0.34c-0.22,0.04-0.44,0.08-0.67,0.13c-0.73,0.15-1.47,0.3-2.19,0.47c-0.15,0.04-0.3,0.07-0.45,0.11
		c-0.61,0.15-1.22,0.3-1.82,0.46c-0.22,0.06-0.44,0.12-0.66,0.18c-0.31,0.09-0.62,0.18-0.94,0.27
		C59.38,105.4,59.71,102.13,60.49,98.86z"/>
</g>
<g>
</g>
<g>
</g>
<g>
</g>
<g>
</g>
<g>
</g>
<g>
</g>
<g>
</g>
<g>
</g>
<g>
</g>
<g>
</g>
<g>
</g>
<g>
</g>
<g>
</g>
<g>
</g>
<g>
</g>
</svg>
