<?xml version="1.0" encoding="utf-8"?>
<!-- Generator: Adobe Illustrator 23.0.2, SVG Export Plug-In . SVG Version: 6.00 Build 0)  -->
<svg version="1.1" id="Layer_1" xmlns="http://www.w3.org/2000/svg" xmlns:xlink="http://www.w3.org/1999/xlink" x="0px" y="0px"
	 viewBox="0 0 250 250" style="enable-background:new 0 0 250 250;" xml:space="preserve">
<style type="text/css">
	.st0{fill:none;stroke:#000000;stroke-miterlimit:10;}
</style>
<g>
	<g>
		<line class="st0" x1="125.18" y1="1.5" x2="125.18" y2="130.41"/>
		<line class="st0" x1="98.04" y1="15.07" x2="125.18" y2="48.99"/>
		<line class="st0" x1="125.18" y1="48.99" x2="152.32" y2="15.07"/>
		<g>
			<line class="st0" x1="125.18" y1="249.14" x2="125.18" y2="127.02"/>
			<line class="st0" x1="152.32" y1="236.29" x2="125.18" y2="204.15"/>
			<line class="st0" x1="125.18" y1="204.15" x2="98.04" y2="236.29"/>
		</g>
	</g>
	<g>
		<line class="st0" x1="1.36" y1="125.32" x2="130.27" y2="125.32"/>
		<line class="st0" x1="14.92" y1="152.46" x2="48.85" y2="125.32"/>
		<line class="st0" x1="48.85" y1="125.32" x2="14.92" y2="98.18"/>
		<g>
			<line class="st0" x1="249" y1="125.32" x2="126.87" y2="125.32"/>
			<line class="st0" x1="236.14" y1="98.18" x2="204.01" y2="125.32"/>
			<line class="st0" x1="204.01" y1="125.32" x2="236.14" y2="152.46"/>
		</g>
	</g>
	<g>
		<line class="st0" x1="49.97" y1="200.53" x2="125.03" y2="125.47"/>
		<line class="st0" x1="73.67" y1="208.44" x2="77.62" y2="172.88"/>
		<line class="st0" x1="77.62" y1="172.88" x2="42.06" y2="176.83"/>
		<g>
			<line class="st0" x1="194.16" y1="56.34" x2="123.05" y2="127.45"/>
			<line class="st0" x1="170.87" y1="48.02" x2="167.96" y2="82.54"/>
			<line class="st0" x1="167.96" y1="82.54" x2="202.48" y2="79.63"/>
		</g>
	</g>
	<g>
		<line class="st0" x1="50.22" y1="49.86" x2="132.19" y2="131.83"/>
		<line class="st0" x1="41.6" y1="75.75" x2="80.42" y2="80.06"/>
		<line class="st0" x1="80.42" y1="80.06" x2="76.11" y2="41.24"/>
		<g>
			<line class="st0" x1="207.69" y1="207.33" x2="130.04" y2="129.68"/>
			<line class="st0" x1="216.77" y1="181.9" x2="179.08" y2="178.72"/>
			<line class="st0" x1="179.08" y1="178.72" x2="182.26" y2="216.41"/>
		</g>
	</g>
</g>
<g>
</g>
<g>
</g>
<g>
</g>
<g>
</g>
<g>
</g>
<g>
</g>
<g>
</g>
<g>
</g>
<g>
</g>
<g>
</g>
<g>
</g>
<g>
</g>
<g>
</g>
<g>
</g>
<g>
</g>
</svg>
