<?xml version="1.0" encoding="utf-8"?>
<!-- Generator: Adobe Illustrator 23.0.2, SVG Export Plug-In . SVG Version: 6.00 Build 0)  -->
<svg version="1.1" id="Layer_1" xmlns="http://www.w3.org/2000/svg" xmlns:xlink="http://www.w3.org/1999/xlink" x="0px" y="0px"
	 viewBox="0 0 250 250" style="enable-background:new 0 0 250 250;" xml:space="preserve">
<style type="text/css">
	.st0{fill:none;stroke:#000000;stroke-miterlimit:10;}
</style>
<g>
	<path class="st0" d="M126.4,177.99c-29.95,0-54.31-24.36-54.31-54.31c0-29.95,24.36-54.31,54.31-54.31s54.31,24.36,54.31,54.31
		C180.71,153.63,156.34,177.99,126.4,177.99z M126.4,74.84c-26.93,0-48.85,21.91-48.85,48.85s21.91,48.85,48.85,48.85
		s48.85-21.91,48.85-48.85S153.33,74.84,126.4,74.84z"/>
	<ellipse class="st0" cx="125.46" cy="34.53" rx="4.94" ry="30.28"/>
	<path class="st0" d="M125.46,243.29c-2.43,0-4.94,0-4.94-30.27c0-30.28,2.51-30.28,4.94-30.28s4.94,0,4.94,30.28
		C130.4,243.29,127.89,243.29,125.46,243.29z"/>
	<path class="st0" d="M175.68,79.92c-0.8,0-1.28-0.48-1.81-1.01c-1.69-1.69-2.81-2.81,10.05-15.66c2.96-2.97,5.86-5.67,8.14-7.62
		c2.77-2.36,5.38-4.58,7.52-2.43c1.69,1.69,2.8,2.8-10.05,15.66l0,0C180.73,77.67,177.43,79.92,175.68,79.92z"/>
	<path class="st0" d="M58.28,197.32c-0.8,0-1.28-0.47-1.81-1c-1.69-1.7-2.81-2.82,10.04-15.66c12.86-12.85,13.97-11.74,15.65-10.06
		c1.7,1.7,2.81,2.82-10.04,15.66C63.32,195.07,60.03,197.32,58.28,197.32z"/>
	<path class="st0" d="M217.32,133.78c-31.67,0-31.67-2.68-31.67-5.05c0-2.37,0-5.05,31.67-5.05c31.68,0,31.68,2.68,31.68,5.05
		C249,131.1,249,133.78,217.32,133.78z"/>
	<path class="st0" d="M32.09,133.78c-31.68,0-31.68-2.68-31.68-5.05c0-2.37,0-5.05,31.68-5.05c31.67,0,31.67,2.68,31.67,5.05
		C63.76,131.1,63.76,133.78,32.09,133.78z"/>
	<path class="st0" d="M199.99,194.67c-0.9,0-2.83-0.12-13.6-10.88c-12.85-12.86-11.74-13.97-10.05-15.66l0.8-0.8l1.24-0.04
		c0.8-0.07,2.73-0.01,13.63,10.88l0,0c10.89,10.89,10.89,12.74,10.88,13.63v1.13l-1.64,1.7l-1.23,0.04
		C200.01,194.67,200,194.67,199.99,194.67z"/>
	<path class="st0" d="M82.71,77.3c-1.7,0-3.6-1.62-5.58-3.3c-2.28-1.94-5.18-4.65-8.14-7.62c-2.97-2.96-5.67-5.86-7.62-8.14
		c-2.36-2.76-4.58-5.38-2.43-7.52c2.14-2.14,4.75,0.08,7.52,2.43c2.28,1.94,5.17,4.65,8.14,7.62s5.67,5.86,7.62,8.14
		c2.35,2.76,4.58,5.38,2.43,7.52C84.04,77.05,83.39,77.3,82.71,77.3z"/>
</g>
<g>
</g>
<g>
</g>
<g>
</g>
<g>
</g>
<g>
</g>
<g>
</g>
<g>
</g>
<g>
</g>
<g>
</g>
<g>
</g>
<g>
</g>
<g>
</g>
<g>
</g>
<g>
</g>
<g>
</g>
</svg>
